<svg width="25.000000" height="24.181641" viewBox="0 0 25 24.1816" fill="none" xmlns="http://www.w3.org/2000/svg" xmlns:xlink="http://www.w3.org/1999/xlink">
	<desc>
			Created with Pixso.
	</desc>
	<defs>
		<filter id="filter_0_148_dd" x="0.000000" y="0.000000" width="25.000000" height="24.181641" filterUnits="userSpaceOnUse" color-interpolation-filters="sRGB">
			<feFlood flood-opacity="0" result="BackgroundImageFix"/>
			<feColorMatrix in="SourceAlpha" type="matrix" values="0 0 0 0 0 0 0 0 0 0 0 0 0 0 0 0 0 0 127 0" result="hardAlpha"/>
			<feOffset dx="0" dy="4"/>
			<feGaussianBlur stdDeviation="1.33333"/>
			<feComposite in2="hardAlpha" operator="out" k2="-1" k3="1"/>
			<feColorMatrix type="matrix" values="0 0 0 0 0 0 0 0 0 0 0 0 0 0 0 0 0 0 0.25 0"/>
			<feBlend mode="normal" in2="BackgroundImageFix" result="effect_dropShadow_1"/>
			<feBlend mode="normal" in="SourceGraphic" in2="effect_dropShadow_1" result="shape"/>
		</filter>
	</defs>
	<g filter="url(#filter_0_148_dd)">
		<path id="Shape" d="M12.5 15.5L11.34 14.4209C7.22 10.6035 4.5 8.08594 4.5 4.99585C4.5 2.47827 6.436 0.5 8.89999 0.5C10.292 0.5 11.628 1.16211 12.5 2.2085C13.372 1.16211 14.708 0.5 16.1 0.5C18.564 0.5 20.5 2.47827 20.5 4.99585C20.5 8.08594 17.78 10.6035 13.66 14.4292L12.5 15.5Z" fill="#FFFFFF" fill-opacity="1.000000" fill-rule="nonzero"/>
	</g>
	<path id="Shape" d="M11.34 14.4209C7.22 10.6035 4.5 8.08594 4.5 4.99585C4.5 2.47827 6.436 0.5 8.89999 0.5C10.292 0.5 11.628 1.16211 12.5 2.2085C13.372 1.16211 14.708 0.5 16.1 0.5C18.564 0.5 20.5 2.47827 20.5 4.99585C20.5 8.08594 17.78 10.6035 13.66 14.4292L12.5 15.5L11.34 14.4209Z" stroke="#000000" stroke-opacity="1.000000" stroke-width="1.000000"/>
</svg>
